IMDB:    http://www.imdb.com/title/tt0366777/
Rating:  7.0/10 with 16,498 votes

The UK is about to switch its currency from Pounds to Euros, giving a gang a chance to rob the poorly-secured train loaded with money on its way to incineration. But, during the robbery, one of the big bags falls literally from the sky on Damian's playhouse, a 7-year old given to talking to saints. The boy then starts seeing what the world and the people around him are made of. Ethics, being human and the soul all come to the forefront in this film.

Audio Language: English
Hardcoded subs: Norwegian

720 * 384
25.000 fps




Format                                   : AVI
Format/Info                              : Audio Video Interleave
File size                                : 1.37 GiB
Duration                                 : 1h 34mn
Overall bit rate                         : 2 075 Kbps
Writing application                      : VirtualDubMod 1.5.4.1 (build 2178/release)
Writing library                          : VirtualDubMod build 2178/release

Video
ID                                       : 0
Format                                   : MPEG-4 Visual
Format profile                           : Advanced Simple@L5
Format settings, BVOP                    : 1
Format settings, QPel                    : No
Format settings, GMC                     : No warppoints
Format settings, Matrix                  : Custom
Codec ID                                 : XVID
Codec ID/Hint                            : XviD
Duration                                 : 1h 34mn
Bit rate                                 : 1 908 Kbps
Width                                    : 720 pixels
Height                                   : 384 pixels
Display aspect ratio                     : 1.85:1
Frame rate                               : 25.000 fps
Color space                              : YUV
Chroma subsampling                       : 4:2:0
Bit depth                                : 8 bits
Scan type                                : Progressive
Compression mode                         : Lossy
Bits/(Pixel*Frame)                       : 0.276
Stream size                              : 1.26 GiB (92%)
Writing library                          : XviD 63

Audio
ID                                       : 1
Format                                   : MPEG Audio
Format version                           : Version 1
Format profile                           : Layer 3
Mode                                     : Joint stereo
Mode extension                           : MS Stereo
Codec ID                                 : 55
Codec ID/Hint                            : MP3
Duration                                 : 1h 34mn
Bit rate mode                            : Constant
Bit rate                                 : 160 Kbps
Channel(s)                               : 2 channels
Sampling rate                            : 48.0 KHz
Compression mode                         : Lossy
Stream size                              : 108 MiB (8%)
Alignment                                : Aligned on interleaves
Interleave, duration                     : 80 ms (2.00 video frames)
Interleave, preload duration             : 504 ms
Writing library                          : LAME3.98r
Encoding settings                        : -m j -V 4 -q 2 -lowpass 17.5 -b 160
Language                                 : English